<?xml version="1.0" encoding="UTF-8"?>
<svg id="Layer_2" xmlns="http://www.w3.org/2000/svg" viewBox="0 0 178.09 45.17">
  <defs>
    <style>
      .cls-1 {
        fill: #f2f2f2;
      }

      .cls-2 {
        fill: #96bee5;
      }

      .cls-3 {
        fill: #1e4a8a;
      }
    </style>
  </defs>
  <g id="Layer_1-2" data-name="Layer_1">
    <g>
      <g>
        <path class="cls-1" d="M18.84.88S10.86,5.73.75,5.73v20.26c0,13.55,18.09,18.41,18.09,18.41,0,0,18.09-4.85,18.09-18.41V5.73C26.83,5.73,18.84.88,18.84.88Z"/>
        <path class="cls-3" d="M18.84,45.17l-.19-.05c-.76-.2-18.65-5.16-18.65-19.13V4.98h.75C10.53,4.98,18.37.28,18.45.24l.39-.24.39.24c.08.05,7.94,4.74,17.7,4.74h.75v21.01c0,13.97-17.89,18.93-18.65,19.13l-.19.05ZM1.5,6.47v19.52c0,12.09,15.42,17.05,17.34,17.62,1.92-.57,17.34-5.55,17.34-17.62V6.47c-8.71-.2-15.64-3.77-17.34-4.73-1.7.95-8.63,4.53-17.34,4.73Z"/>
      </g>
      <path class="cls-3" d="M18.84,3.59S11.85,7.84,3,7.84v17.74c0,11.87,15.84,16.11,15.84,16.11,0,0,15.84-4.25,15.84-16.11V7.84c-8.85,0-15.84-4.25-15.84-4.25Z"/>
      <path class="cls-2" d="M25.38,13.56c-.15-1.29-.69-2.54-1.54-3.54-.23-.27-.75-.76-1.05-.98-.93-.7-2.07-1.15-3.21-1.27-1.95-.22-3.88.45-5.29,1.82-1.98,1.93-2.55,4.86-1.43,7.39.62,1.4,1.77,2.59,3.15,3.24l.29.14v1.71h.54c.3-.01.54,0,.54,0-.04.07-.57,1.38-.57,1.42,0,.07,0,.07.57.43.27.17.49.31.5.32.02.01-.55.38-.95.62-.01,0-.03.06-.04.12l-.02.11.45.39c.25.22.47.41.5.43.04.04.01.07-.57.69l-.61.65v.57l.62.74c.34.4.62.74.62.75,0,0-.25.24-.57.5l-.56.49v.13c.02.12.04.16.24.43.12.16.23.32.23.33,0,.02-.08.22-.17.44l-.16.41.02.41.02.41.32.29c.18.16.43.38.56.5l.24.22-.51.37-.51.37v.48l1.7,1.23,1.69,1.23h.49s.49-.01.49-.01v-8.59s.01-8.59.01-8.59l.17-.08c1.03-.48,1.99-1.28,2.63-2.2.58-.83.95-1.75,1.12-2.77.05-.3.07-1.42.03-1.74ZM20.58,11.62c-.13.47-.47.85-.95,1.07-.52.24-1.03.24-1.55,0-.28-.13-.48-.27-.65-.48-.27-.33-.37-.62-.37-1.06,0-.26.01-.32.07-.49.27-.76,1-1.22,1.82-1.18,1.15.07,1.92,1.09,1.62,2.14Z"/>
    </g>
    <g>
      <path class="cls-3" d="M50.1,9.06h-2.08V1.9h-3.71V.12h9.5v1.79h-3.71v7.16Z"/>
      <path class="cls-3" d="M64.5,9.06h-2.08v-1.59h-5.33v1.59h-2.08v-4.47c0-1.48.28-2.6.83-3.35.56-.75,1.39-1.12,2.51-1.12h6.15v8.94ZM57.09,5.68h5.33V1.9h-3.62c-.35,0-.63.08-.86.23-.22.16-.39.35-.52.58-.13.23-.21.47-.26.73-.05.26-.08.5-.08.72v1.51Z"/>
      <path class="cls-3" d="M68.05,5.73c.04.26.13.5.25.74.12.23.29.42.51.58.21.16.5.23.85.23h5.08v1.79h-5.5c-2.23,0-3.34-1.49-3.34-4.47,0-1.48.28-2.6.83-3.35.55-.75,1.39-1.12,2.51-1.12h5.5v1.79h-5.08c-.35,0-.63.08-.85.23-.22.16-.39.35-.51.58-.12.23-.21.47-.25.73-.04.26-.07.5-.07.72v.84c0,.22.02.46.07.72Z"/>
      <path class="cls-3" d="M81.68,9.06h-2.08V1.9h-3.38V.12h8.85v1.79h-3.39v7.16Z"/>
      <path class="cls-3" d="M88.62,9.06h-2.08V.12h2.08v8.94Z"/>
      <path class="cls-3" d="M92.18,5.73c.04.26.13.5.25.74.12.23.29.42.51.58.21.16.5.23.85.23h5.08v1.79h-5.5c-2.23,0-3.34-1.49-3.34-4.47,0-1.48.28-2.6.83-3.35.55-.75,1.39-1.12,2.51-1.12h5.5v1.79h-5.08c-.35,0-.63.08-.85.23-.22.16-.39.35-.51.58-.12.23-.21.47-.25.73-.04.26-.07.5-.07.72v.84c0,.22.02.46.07.72Z"/>
      <path class="cls-3" d="M109.85,9.06h-2.08v-1.59h-5.33v1.59h-2.08v-4.47c0-1.48.28-2.6.83-3.35.56-.75,1.39-1.12,2.51-1.12h6.15v8.94ZM102.44,5.68h5.33V1.9h-3.62c-.35,0-.63.08-.86.23-.22.16-.39.35-.52.58-.13.23-.21.47-.26.73-.05.26-.08.5-.08.72v1.51Z"/>
      <path class="cls-3" d="M113.47,5.73c.04.26.13.5.25.74.12.23.29.42.51.58s.5.23.85.23h5.08v1.79h-5.5c-1.12,0-1.96-.38-2.51-1.12-.55-.75-.83-1.87-.83-3.34V.12h2.08v4.89c0,.22.02.46.07.72Z"/>
      <path class="cls-3" d="M45.14,19.24c.55-.75,1.39-1.12,2.51-1.12h6.13v1.79h-5.71c-.32,0-.59.07-.8.21-.21.14-.38.31-.51.5-.12.19-.21.39-.26.59s-.08.37-.08.49h7.35v.9c0,1.48-.28,2.59-.83,3.34s-1.39,1.12-2.51,1.12h-6.13v-1.79h5.71c.29,0,.53-.05.73-.17.2-.11.36-.25.49-.43.13-.17.23-.37.29-.58.06-.21.11-.42.14-.63h-7.35v-.88c0-1.48.28-2.6.83-3.35Z"/>
      <path class="cls-3" d="M64.94,24.03c0,.57-.1,1.06-.3,1.46s-.54.73-1.03.98l1.11,1.47h-2.14l-.72-.97c-.27.04-.56.07-.87.08-.31.02-.64.02-.99.02-.91,0-1.67-.07-2.28-.2-.61-.13-1.1-.33-1.46-.58s-.62-.57-.78-.95c-.15-.38-.23-.8-.23-1.27v-2.96c0-.48.08-.91.25-1.28s.43-.69.81-.95c.37-.25.87-.45,1.49-.58.62-.13,1.39-.2,2.31-.2s1.72.06,2.34.18c.62.12,1.11.3,1.48.55.37.25.63.55.79.93.15.38.23.81.23,1.31v2.96ZM61.33,23.41l1.07,1.42c.17-.14.29-.32.35-.53.07-.21.1-.48.1-.8v-2c0-.22-.03-.43-.1-.63-.07-.2-.2-.37-.39-.52-.19-.14-.47-.26-.83-.34-.36-.08-.83-.13-1.42-.13-1.02,0-1.74.14-2.15.43s-.62.68-.62,1.18v2.07c0,.26.04.5.13.71.08.21.23.4.43.54.2.15.47.26.82.34.34.08.78.12,1.29.12h.61l-1.38-1.88h2.1Z"/>
      <path class="cls-3" d="M75.93,24.03c0,.51-.08.96-.22,1.33-.15.38-.41.7-.79.95-.38.25-.87.44-1.5.57-.62.13-1.41.19-2.34.19s-1.66-.07-2.26-.2c-.6-.13-1.08-.33-1.43-.58s-.6-.57-.75-.95-.22-.8-.22-1.27v-5.96h2.08v5.45c0,.26.04.5.11.71s.21.4.4.55c.19.15.45.26.79.34.33.08.76.12,1.28.12.59,0,1.06-.03,1.42-.09.36-.06.64-.16.84-.3s.33-.32.4-.55c.07-.23.1-.51.1-.85v-5.37h2.08v5.91Z"/>
      <path class="cls-3" d="M86.91,27.06h-2.08v-1.59h-5.33v1.59h-2.08v-4.47c0-1.48.28-2.6.83-3.35s1.39-1.12,2.51-1.12h6.15v8.94ZM79.5,23.68h5.33v-3.78h-3.62c-.35,0-.63.08-.85.23-.22.16-.39.35-.52.58-.12.23-.21.47-.26.73-.05.26-.08.5-.08.72v1.51Z"/>
      <path class="cls-3" d="M93.84,27.06h-2.08v-7.16h-3.38v-1.79h8.85v1.79h-3.39v7.16Z"/>
      <path class="cls-3" d="M104.16,27.06h-2.08v-7.16h-3.38v-1.79h8.85v1.79h-3.39v7.16Z"/>
      <path class="cls-3" d="M110.87,23.92c.04.2.13.4.25.6s.3.38.53.53c.22.15.52.22.88.22h4.99v1.79h-5.5c-1.12,0-1.96-.38-2.51-1.14-.56-.76-.83-1.87-.83-3.33s.28-2.6.83-3.35c.55-.75,1.39-1.12,2.51-1.12h5.5v1.79h-4.99c-.33,0-.61.07-.83.2-.22.13-.4.29-.53.48-.13.19-.22.38-.28.58-.06.21-.08.38-.08.52h5.5v1.79h-5.5c0,.1.02.25.07.45Z"/>
      <path class="cls-3" d="M119,18.12h6.14c.54,0,1,.08,1.37.25.38.17.69.37.94.62.25.25.44.53.58.83s.24.59.31.86c.07.28.11.52.12.73s.02.35.02.41v.04c0,.26-.03.55-.08.88s-.16.64-.3.96c-.15.31-.35.61-.6.88s-.58.49-.98.65l1.37,1.83h-2.31l-1.21-1.59h-3.28v1.59h-2.08v-8.94ZM124.71,23.68c.3,0,.55-.06.76-.2.21-.13.38-.29.52-.47.13-.18.24-.39.3-.61.07-.22.1-.42.1-.6,0-.21-.03-.42-.08-.64-.06-.22-.15-.43-.29-.62-.13-.19-.32-.35-.54-.46-.23-.12-.5-.18-.83-.18h-3.57v3.78h3.63Z"/>
      <path class="cls-3" d="M47.89,38.32c-.42.28-.62.67-.62,1.17v.19h5.48v1.79h-5.48v.09c0,.26.04.49.13.71s.23.39.43.54c.2.15.47.26.82.34.34.08.78.12,1.3.12h4.09v1.79h-4.09c-.91,0-1.67-.07-2.28-.2-.61-.14-1.1-.33-1.46-.58-.37-.26-.62-.57-.78-.95-.15-.38-.23-.8-.23-1.27v-2.92c0-.48.08-.91.25-1.28s.43-.69.81-.95.87-.45,1.49-.58c.62-.13,1.39-.2,2.31-.2h3.99v1.79h-3.99c-1.02,0-1.74.14-2.15.42Z"/>
      <path class="cls-3" d="M55.2,45.06l3.48-4.47-3.48-4.47h2.52l2.22,2.87,2.24-2.87h2.52l-3.5,4.47,3.5,4.47h-2.52l-2.24-2.85-2.22,2.85h-2.52Z"/>
      <path class="cls-3" d="M71.32,45.06h-2.08v-7.16h-3.38v-1.79h8.85v1.79h-3.39v7.16Z"/>
      <path class="cls-3" d="M78.04,41.92c.04.2.13.4.25.6s.3.38.53.53c.22.15.52.22.88.22h5v1.79h-5.5c-1.12,0-1.96-.38-2.51-1.14s-.83-1.87-.83-3.33.28-2.6.83-3.35,1.39-1.12,2.51-1.12h5.5v1.79h-5c-.33,0-.61.07-.83.2-.23.13-.4.29-.53.48-.13.19-.22.38-.28.58s-.08.38-.08.52h5.5v1.79h-5.5c0,.1.02.25.07.45Z"/>
      <path class="cls-3" d="M86.16,36.12h6.14c.54,0,1,.08,1.37.25.38.17.69.37.94.62.25.25.44.53.58.83s.24.59.31.86c.06.28.11.52.12.73s.02.35.02.41v.04c0,.26-.03.55-.08.88s-.16.64-.31.96c-.15.31-.35.61-.6.88-.25.28-.58.49-.98.65l1.37,1.83h-2.31l-1.21-1.59h-3.28v1.59h-2.08v-8.94ZM91.88,41.68c.3,0,.55-.06.76-.2.21-.13.38-.29.52-.47.13-.18.23-.39.3-.61.07-.22.1-.42.1-.6,0-.21-.03-.42-.08-.64-.05-.22-.15-.43-.28-.62-.14-.19-.32-.35-.54-.46-.23-.12-.5-.18-.83-.18h-3.57v3.78h3.63Z"/>
      <path class="cls-3" d="M97.05,45.06v-8.94h9c1.12,0,1.96.38,2.51,1.12.55.75.83,1.87.83,3.35v4.47h-2.08v-4.89c0-.22-.03-.46-.08-.72-.05-.26-.14-.5-.26-.73-.13-.23-.3-.42-.53-.58-.22-.15-.51-.23-.85-.23h-1.75s.05.05.1.15c.05.1.1.25.15.43.05.19.09.43.13.71s.06.61.06.97v4.89h-2.08v-4.89c0-.22-.02-.46-.07-.72-.04-.26-.13-.5-.26-.73-.12-.23-.3-.42-.52-.58-.22-.15-.5-.23-.84-.23h-1.39v7.16h-2.08Z"/>
      <path class="cls-3" d="M112.95,45.06h-2.08v-8.94h2.08v8.94Z"/>
      <path class="cls-3" d="M114.43,45.06v-8.94h6.15c1.12,0,1.96.38,2.51,1.12.56.75.83,1.87.83,3.35v4.47h-2.08v-4.89c0-.22-.03-.46-.08-.72-.05-.26-.14-.5-.26-.73-.12-.23-.3-.42-.52-.58-.23-.15-.51-.23-.85-.23h-3.62v7.16h-2.08Z"/>
      <path class="cls-3" d="M134.89,45.06h-2.09v-1.59h-5.32v1.59h-2.08v-4.47c0-1.48.28-2.6.83-3.35s1.39-1.12,2.51-1.12h6.15v8.94ZM127.48,41.68h5.32v-3.78h-3.61c-.35,0-.64.08-.86.23-.22.16-.39.35-.52.58-.12.23-.21.47-.26.73-.05.26-.07.5-.07.72v1.51Z"/>
      <path class="cls-3" d="M141.82,45.06h-2.08v-7.16h-3.38v-1.79h8.85v1.79h-3.39v7.16Z"/>
      <path class="cls-3" d="M156.25,42.03c0,.51-.08.96-.24,1.33-.16.38-.43.7-.82.95s-.89.44-1.53.57c-.63.13-1.42.19-2.36.19s-1.67-.07-2.28-.2-1.1-.33-1.46-.58-.62-.57-.78-.95c-.15-.38-.23-.8-.23-1.27v-2.96c0-.48.08-.91.25-1.28.16-.38.43-.69.81-.95.37-.25.87-.45,1.49-.58.62-.13,1.39-.2,2.31-.2s1.72.06,2.34.18c.62.12,1.11.3,1.48.55s.63.55.79.93c.16.38.23.81.23,1.31v2.96ZM151.42,37.89c-1.02,0-1.74.14-2.15.43s-.62.68-.62,1.18v2.07c0,.26.04.5.13.71.08.21.23.4.43.54s.47.26.82.34c.34.08.78.12,1.3.12.59,0,1.07-.03,1.44-.09s.66-.16.87-.3c.21-.14.35-.32.43-.55s.11-.51.11-.85v-2c0-.22-.03-.43-.1-.63-.06-.2-.19-.37-.39-.51-.2-.14-.47-.26-.83-.34-.36-.08-.83-.13-1.42-.13Z"/>
      <path class="cls-3" d="M157.74,36.12h6.14c.54,0,1,.08,1.37.25.38.17.69.37.94.62.25.25.44.53.58.83s.24.59.31.86c.07.28.11.52.12.73s.02.35.02.41v.04c0,.26-.03.55-.08.88s-.16.64-.3.96c-.15.31-.35.61-.6.88s-.58.49-.98.65l1.37,1.83h-2.31l-1.21-1.59h-3.28v1.59h-2.08v-8.94ZM163.45,41.68c.3,0,.55-.06.76-.2.21-.13.38-.29.52-.47.13-.18.24-.39.3-.61.07-.22.1-.42.1-.6,0-.21-.03-.42-.08-.64-.06-.22-.15-.43-.29-.62-.13-.19-.32-.35-.54-.46-.23-.12-.5-.18-.83-.18h-3.57v3.78h3.63Z"/>
      <path class="cls-3" d="M169.46,37.24c.55-.75,1.39-1.12,2.51-1.12h4.29v1.79h-3.87c-.29,0-.54.06-.74.17-.2.11-.36.25-.49.42-.12.17-.22.36-.29.57-.06.21-.11.42-.14.63h7.35v.9c0,1.48-.28,2.59-.83,3.34-.55.75-1.39,1.12-2.51,1.12h-6.12v-1.79h5.7c.29,0,.53-.05.73-.17.2-.11.36-.25.49-.43.13-.17.23-.37.29-.58s.11-.42.14-.63h-7.35v-.88c0-1.48.28-2.6.83-3.35Z"/>
    </g>
  </g>
</svg>